<svg id="Layer_1" data-name="Layer 1" xmlns="http://www.w3.org/2000/svg" viewBox="0 0 466.59 466.16"><path d="M5257.36,5484.78v-288a37.27,37.27,0,0,1,3.75-.35q104.74,0,209.49.11c24.19,0,43.91,9.74,59,28.58,10.45,13,16.15,28,16.19,44.74q.24,105.75.08,211.49c0,1.13-.15,2.25-.24,3.45Z" transform="translate(-5079.36 -5196.39)"/><path d="M5080.68,5484.79V5374.47h110.11v110.32Z" transform="translate(-5079.36 -5196.39)"/><path d="M5257.36,5552.16h110.26v110.4H5257.36Z" transform="translate(-5079.36 -5196.39)"/><path d="M5079.47,5307.09c0-10.73-.3-21.35.09-32,.28-7.44.63-15.06,2.41-22.24a74.79,74.79,0,0,1,72.4-56.48c11.8,0,23.6,0,35.65,0,.14,1.82.33,3.1.33,4.38,0,33.82-.06,67.63,0,101.45,0,3.74-.82,5.21-4.95,5.19-34.31-.12-68.62,0-102.94,0C5081.71,5307.43,5080.91,5307.25,5079.47,5307.09Z" transform="translate(-5079.36 -5196.39)"/><path d="M5435.23,5661.75V5552.41h110.63c0,12.12.28,24.23-.12,36.32a84.25,84.25,0,0,1-2.64,18.7c-8.18,30.82-35.43,52.54-68.35,54.21C5461.82,5662.3,5448.83,5661.75,5435.23,5661.75Z" transform="translate(-5079.36 -5196.39)"/><path d="M5080.44,5552.22H5189.9v108.86c-.26.2-.52.59-.78.58-17.44-.17-35,1.92-52.27-1.92-31.66-7-54.86-35.17-56.32-68.63C5080,5578.34,5080.44,5565.53,5080.44,5552.22Z" transform="translate(-5079.36 -5196.39)"/></svg>